SRRun01_grf
version=1
nRows=18
nColumns=19
inDegrees=no
endheader
time	ground_force_r_vx	ground_force_r_vy	ground_force_r_vz	ground_force_r_px	ground_force_r_py	ground_force_r_pz	ground_force_r_mx	ground_force_r_my	ground_force_r_mz	ground_force_l_vx	ground_force_l_vy	ground_force_l_vz	ground_force_l_px	ground_force_l_py	ground_force_l_pz	ground_force_l_mx	ground_force_l_my	ground_force_l_mz
    144.99800000	    -32.02753615	    183.50431785	    -62.42937503	      0.86890565	      0.00000000	     -0.91965383	      0.00000910	    -10.09308227	      0.00000712	      0.00000000	      0.00000000	      0.00000000	      0.00000000	      0.00000000	      0.00000000	      0.00000000	      0.00000000	      0.00000000
    144.99900000	    -33.36376792	    173.65065206	    -58.36126800	      0.86856304	      0.00000000	     -0.91876349	      0.00000874	    -12.65473971	      0.00000693	      0.00000000	      0.00000000	      0.00000000	      0.00000000	      0.00000000	      0.00000000	      0.00000000	      0.00000000	      0.00000000
    145.00000000	    -32.88773853	    163.81944899	    -53.74187249	      0.86976903	      0.00000000	     -0.91735799	      0.00000833	    -14.39933899	      0.00000673	      0.00000000	      0.00000000	      0.00000000	      0.00000000	      0.00000000	      0.00000000	      0.00000000	      0.00000000	      0.00000000
    145.00100000	    -30.58621664	    154.09719543	    -48.65827261	      0.87261085	      0.00000000	     -0.91530549	      0.00000786	    -15.20009793	      0.00000653	      0.00000000	      0.00000000	      0.00000000	      0.00000000	      0.00000000	      0.00000000	      0.00000000	      0.00000000	      0.00000000
    145.00200000	    -26.57409002	    144.58439990	    -43.27197031	      0.87705564	      0.00000000	     -0.91250113	      0.00000735	    -14.99295897	      0.00000632	      0.00000000	      0.00000000	      0.00000000	      0.00000000	      0.00000000	      0.00000000	      0.00000000	      0.00000000	      0.00000000
    145.00300000	    -21.08780061	    135.38760110	    -37.80744086	      0.88294211	      0.00000000	     -0.90889216	      0.00000680	    -13.78300436	      0.00000612	      0.00000000	      0.00000000	      0.00000000	      0.00000000	      0.00000000	      0.00000000	      0.00000000	      0.00000000	      0.00000000
    145.00400000	    -14.46947998	    126.61057608	    -32.53277080	      0.88998232	      0.00000000	     -0.90450188	      0.00000625	    -11.64589642	      0.00000591	      0.00000000	      0.00000000	      0.00000000	      0.00000000	      0.00000000	      0.00000000	      0.00000000	      0.00000000	      0.00000000
    145.00500000	     -7.14268606	    118.34592030	    -27.73408582	      0.89777412	      0.00000000	     -0.89944703	      0.00000570	     -8.72390162	      0.00000570	      0.00000000	      0.00000000	      0.00000000	      0.00000000	      0.00000000	      0.00000000	      0.00000000	      0.00000000	      0.00000000
    145.00600000	      0.41858782	    110.66811696	    -23.68623202	      0.90582461	      0.00000000	     -0.89394372	      0.00000518	     -5.21646060	      0.00000549	      0.00000000	      0.00000000	      0.00000000	      0.00000000	      0.00000000	      0.00000000	      0.00000000	      0.00000000	      0.00000000
    145.00700000	      7.72524471	    103.62885261	    -20.62283631	      0.91358349	      0.00000000	     -0.88829810	      0.00000470	     -1.36576319	      0.00000529	      0.00000000	      0.00000000	      0.00000000	      0.00000000	      0.00000000	      0.00000000	      0.00000000	      0.00000000	      0.00000000
    145.00800000	     14.30986307	     97.25483798	    -18.70932113	      0.92048427	      0.00000000	     -0.88288010	      0.00000427	      2.56170765	      0.00000508	      0.00000000	      0.00000000	      0.00000000	      0.00000000	      0.00000000	      0.00000000	      0.00000000	      0.00000000	      0.00000000
    145.00900000	     19.76182919	     91.54796210	    -18.02247575	      0.92598973	      0.00000000	     -0.87808187	      0.00000391	      6.29625102	      0.00000487	      0.00000000	      0.00000000	      0.00000000	      0.00000000	      0.00000000	      0.00000000	      0.00000000	      0.00000000	      0.00000000
    145.01000000	     23.75787306	     86.48739962	    -18.53963668	      0.92963721	      0.00000000	     -0.87426732	      0.00000361	      9.58687717	      0.00000464	      0.00000000	      0.00000000	      0.00000000	      0.00000000	      0.00000000	      0.00000000	      0.00000000	      0.00000000	      0.00000000
    145.01100000	     26.08549145	     82.03332137	    -20.13940479	      0.93107955	      0.00000000	     -0.87172205	      0.00000337	     12.22211099	      0.00000440	      0.00000000	      0.00000000	      0.00000000	      0.00000000	      0.00000000	      0.00000000	      0.00000000	      0.00000000	      0.00000000
    145.01200000	     26.65734638	     78.13197256	    -22.61427528	      0.93011819	      0.00000000	     -0.87061371	      0.00000318	     14.04764299	      0.00000414	      0.00000000	      0.00000000	      0.00000000	      0.00000000	      0.00000000	      0.00000000	      0.00000000	      0.00000000	      0.00000000
    145.01300000	     25.51539729	     74.72185766	    -25.69385693	      0.92672541	      0.00000000	     -0.87097031	      0.00000304	     14.97894749	      0.00000386	      0.00000000	      0.00000000	      0.00000000	      0.00000000	      0.00000000	      0.00000000	      0.00000000	      0.00000000	      0.00000000
    145.01400000	     22.82422944	     71.74049641	    -29.07581186	      0.92105314	      0.00000000	     -0.87268022	      0.00000292	     15.00737081	      0.00000356	      0.00000000	      0.00000000	      0.00000000	      0.00000000	      0.00000000	      0.00000000	      0.00000000	      0.00000000	      0.00000000
    145.01500000	     18.85384683	     69.13082625	    -32.46046093	      0.91342559	      0.00000000	     -0.87551296	      0.00000281	     14.19883492	      0.00000325	      0.00000000	      0.00000000	      0.00000000	      0.00000000	      0.00000000	      0.00000000	      0.00000000	      0.00000000	      0.00000000
